<svg id="Ebene_1" data-name="Ebene 1" xmlns="http://www.w3.org/2000/svg" xmlns:xlink="http://www.w3.org/1999/xlink" width="30mm" height="24mm" viewBox="0 0 85.04 68.03"><defs><clipPath id="clip-path" transform="translate(0 0)"><rect width="85.04" height="68.03" style="fill:none"/></clipPath></defs><title>bort-logo</title><g style="clip-path:url(#clip-path)"><path d="M4.25,0S0,0,0,4.28V63.75S0,68,4.25,68H80.79S85,68,85,63.75V4.28S85,0,80.79,0H4.25Z" transform="translate(0 0)" style="fill:#772d2a"/></g><polygon points="40.44 22.34 45.59 22.34 45.59 26.55 49.8 26.55 49.8 31.68 45.59 31.68 45.59 35.87 40.44 35.87 40.44 31.73 36.21 31.73 36.21 26.56 40.44 26.56 40.44 22.34" style="fill:#fc0"/><path d="M43,41.3A12.19,12.19,0,1,1,55.2,29.12,12.2,12.2,0,0,1,43,41.3m0-22.18a10,10,0,1,0,10,10,10,10,0,0,0-10-10" transform="translate(0 0)" style="fill:#fff"/><path d="M64.17,16.72c-7.49-1-9.63,4.46-9.78,7.12,0,0.8,0,1.64,0,2.47V41.14H56.9V25.69c0-4.6,1.34-6.66,5.43-6.85h4.16V7H64.17v9.77Z" transform="translate(0 0)" style="fill:#fff"/><path d="M59.07,41.11h2.29V24.48a0.92,0.92,0,0,1,.23-0.65,1.58,1.58,0,0,1,1.22-.41h1.45v12A5.34,5.34,0,0,0,66.13,39a8.32,8.32,0,0,0,4.5,1.9c0.31,0,.6,0,0.88,0a7.29,7.29,0,0,0,5-1.66l-1.11-1.64a7.76,7.76,0,0,1-3.78,1H71.35a5.14,5.14,0,0,1-3-1A4.6,4.6,0,0,1,67,36.13a4.12,4.12,0,0,1-.45-1.79,4.34,4.34,0,0,1,0-.95V24.14c0-.86,0-2.41,0-2.87h-3.9a3.67,3.67,0,0,0-2.72,1,3.17,3.17,0,0,0-.81,2.09V41.11Z" transform="translate(0 0)" style="fill:#fff"/><polygon points="71.14 16.68 77.05 16.69 77.05 18.8 68.84 18.8 68.84 6.95 71.14 6.95 71.14 16.68" style="fill:#fff"/><path d="M69,21.27V33.09A3.31,3.31,0,0,0,69.75,35a2.35,2.35,0,0,0,1.87.85A5.1,5.1,0,0,0,74,35.05l-1.1-1.7a3,3,0,0,1-.87.35H71.87a0.62,0.62,0,0,1-.52-0.21A0.64,0.64,0,0,1,71.19,33c0-.17,0-0.38,0-0.38V23.4h5.71V21.27H69Z" transform="translate(0 0)" style="fill:#fff"/><path d="M20.82,16.93h0a12.1,12.1,0,0,0-5.6,1.37V7H13V29.12h0a7.82,7.82,0,1,0,2.19-5.41V20.8l0,0a9.93,9.93,0,0,1,5.58-1.71h0a10,10,0,1,1-10,10V7H8.63V29.12A12.19,12.19,0,1,0,20.82,16.93m0,6.58a5.61,5.61,0,1,1-5.61,5.61h0V29a5.62,5.62,0,0,1,5.61-5.53" transform="translate(0 0)" style="fill:#fff"/><path d="M13.89,51h1.35L17,56.22h0L18.86,51h1.36v9.79h-1.4v-6h0L17.4,59.08H16.7l-1.37-4.21h0v6h-1.4V51Z" transform="translate(0 0)" style="fill:#fff"/><path d="M25.06,51h4.18v1.32H26.46v2.87h2.42v1.32H26.46v2.87h2.78v1.4H25.06V51Z" transform="translate(0 0)" style="fill:#fff"/><path d="M33.65,51h2.08a2.28,2.28,0,0,1,2.46,2.53v4.58a2.35,2.35,0,0,1-2.58,2.68h-2V51Zm1.4,8.47H35.7a1,1,0,0,0,1.09-1.22V53.56a1,1,0,0,0-1.09-1.21H35.05V59.5Z" transform="translate(0 0)" style="fill:#fff"/><path d="M43.08,51h1.4v9.79h-1.4V51Z" transform="translate(0 0)" style="fill:#fff"/><path d="M53.83,58.64a2.26,2.26,0,0,1-2.23,2.27A2.12,2.12,0,0,1,49.3,58.6V53.21A2.19,2.19,0,0,1,51.58,51a2.23,2.23,0,0,1,2.25,2.34v0.55h-1.4V53.37a0.92,0.92,0,0,0-.87-1c-0.7,0-.87.48-0.87,1.14v5a0.84,0.84,0,0,0,.85,1,0.87,0.87,0,0,0,.88-1V58h1.4v0.61Z" transform="translate(0 0)" style="fill:#fff"/><path d="M60,51h1.17l2.19,9.79H62l-0.41-2.1H59.67l-0.41,2.1h-1.4Zm0.59,2.82h0L59.92,57.4h1.4Z" transform="translate(0 0)" style="fill:#fff"/><path d="M67.68,51h1.4v8.39h2.78l0.51,1.32-4.69.08V51Z" transform="translate(0 0)" style="fill:#fff"/><path d="M5.89,48.81c9.71-2.22,22.89-3.47,36.63-3.47s26.92,1.25,36.63,3.47L80,49a268.25,268.25,0,0,0-37.51-2.46A268.26,268.26,0,0,0,5,49Z" transform="translate(0 0)" style="fill:#fff"/></svg>