<?xml version="1.0" encoding="UTF-8" standalone="no"?>
<svg
   xmlns:dc="http://purl.org/dc/elements/1.1/"
   xmlns:cc="http://creativecommons.org/ns#"
   xmlns:rdf="http://www.w3.org/1999/02/22-rdf-syntax-ns#"
   xmlns:svg="http://www.w3.org/2000/svg"
   xmlns="http://www.w3.org/2000/svg"
   viewBox="0 0 491.33868 188.976"
   height="188.976"
   width="491.33868"
   xml:space="preserve"
   id="svg2"
   version="1.1"><metadata
     id="metadata8"><rdf:RDF><cc:Work
         rdf:about=""><dc:format>image/svg+xml</dc:format><dc:type
           rdf:resource="http://purl.org/dc/dcmitype/StillImage" /></cc:Work></rdf:RDF></metadata><defs
     id="defs6"><clipPath
       id="clipPath18"
       clipPathUnits="userSpaceOnUse"><path
         id="path16"
         d="M 0,141.732 H 368.504 V 0 H 0 Z" /></clipPath></defs><g
     transform="matrix(1.3333333,0,0,-1.3333333,0,188.976)"
     id="g10"><g
       id="g12"><g
         clip-path="url(#clipPath18)"
         id="g14"><g
           transform="translate(346.813,122.7454)"
           id="g20"><path
             id="path22"
             style="fill:#ffffff;fill-opacity:1;fill-rule:nonzero;stroke:none"
             d="m 0,0 v -63.814 c 0,-25.394 -8.073,-39.703 -44.895,-39.703 h -282.618 v -4.141 h 282.618 c 20.333,0 31.471,3.676 39.212,11.571 6.794,6.927 9.824,16.88 9.824,32.273 L 4.141,0 Z" /></g><g
           transform="translate(301.9184,19.2273)"
           id="g24"><path
             id="path26"
             style="fill:#00205c;fill-opacity:1;fill-rule:nonzero;stroke:none"
             d="M 0,0 H -282.619 V 103.518 H 44.895 V 39.704 C 44.895,14.311 36.821,0 0,0" /></g><g
           transform="translate(100.5893,103.1541)"
           id="g28"><path
             id="path30"
             style="fill:#ffffff;fill-opacity:1;fill-rule:nonzero;stroke:none"
             d="m 0,0 c -2.02,-0.521 -4.016,-1.272 -5.989,-2.253 -4.414,-2.299 -7.953,-5.488 -10.614,-9.564 -3.069,-4.722 -4.603,-10.239 -4.603,-16.554 0,-4.016 0.626,-7.793 1.879,-11.334 1.252,-3.542 3.053,-6.63 5.401,-9.267 2.38,-2.728 5.244,-4.85 8.595,-6.368 3.35,-1.517 7.06,-2.291 11.131,-2.321 1.879,0 3.844,0.236 5.894,0.713 2.051,0.474 4.031,1.202 5.942,2.184 4.415,2.176 7.952,5.287 10.614,9.334 3.068,4.659 4.603,10.269 4.603,16.829 0,3.985 -0.627,7.763 -1.879,11.334 -1.253,3.572 -3.053,6.691 -5.401,9.358 -2.411,2.759 -5.3,4.897 -8.665,6.414 C 13.542,0.023 9.839,0.782 5.8,0.782 3.952,0.782 2.019,0.521 0,0 m 19.631,2.368 c 4.211,-1.579 7.868,-3.84 10.967,-6.783 3.131,-2.972 5.55,-6.521 7.257,-10.644 1.706,-4.124 2.56,-8.668 2.56,-13.634 0,-5.211 -0.916,-9.879 -2.748,-14.001 -1.832,-4.123 -4.407,-7.611 -7.726,-10.461 -3.163,-2.759 -6.827,-4.852 -10.99,-6.277 -4.165,-1.425 -8.579,-2.138 -13.245,-2.138 -4.916,0 -9.472,0.775 -13.667,2.322 -4.196,1.548 -7.843,3.763 -10.943,6.645 -3.163,2.912 -5.597,6.415 -7.304,10.506 -1.707,4.093 -2.559,8.622 -2.559,13.588 0,6.744 1.644,12.706 4.932,17.887 3.099,4.874 7.326,8.66 12.68,11.358 5.26,2.667 10.974,4.001 17.143,4.001 4.885,0 9.432,-0.79 13.643,-2.369" /></g><g
           transform="translate(155.9809,102.971)"
           id="g32"><path
             id="path34"
             style="fill:#ffffff;fill-opacity:1;fill-rule:nonzero;stroke:none"
             d="m 0,0 v -23.59 c 0.751,0 1.299,-0.015 1.644,-0.046 0.344,-0.03 0.907,-0.045 1.69,-0.045 0.376,0 0.72,0.015 1.034,0.045 h 1.409 c 0.594,0 1.033,0.016 1.315,0.046 h 0.892 c 1.879,0 3.992,0.368 6.341,1.104 2.88,0.92 5.181,2.269 6.904,4.046 2.003,2.115 3.006,4.66 3.006,7.634 0,3.923 -1.504,6.866 -4.509,8.828 -1.221,0.797 -2.631,1.387 -4.227,1.77 -1.597,0.383 -3.257,0.59 -4.979,0.621 -0.845,0 -1.519,-0.016 -2.019,-0.046 L 3.757,0.091 C 2.63,0.03 1.832,0 1.362,0 Z m 23.061,-31.636 c -2.506,1.839 -5.981,3.11 -10.427,3.816 -2.724,0.398 -6.012,0.597 -9.863,0.597 H 0 v -10.114 -5.566 c -0.032,-1.257 -0.047,-3.018 -0.047,-5.287 v -4.644 -3.587 c 1.879,0 3.553,-0.062 5.025,-0.184 1.503,-0.122 2.802,-0.184 3.898,-0.184 3.226,0 6.09,0.368 8.595,1.104 4.446,1.317 7.515,3.832 9.206,7.541 0.845,1.9 1.268,4.107 1.268,6.621 -0.032,4.262 -1.66,7.557 -4.884,9.887 M -7.28,-16.371 c 0,3.342 -0.11,7.909 -0.328,13.703 -0.095,1.35 -0.204,3.404 -0.329,6.163 h 5.119 c 2.16,0 4.054,0.061 5.683,0.183 1.784,0.092 3.491,0.138 5.119,0.138 2.067,0 3.843,-0.031 5.331,-0.092 1.487,-0.061 3.013,-0.183 4.579,-0.368 2.067,-0.368 3.953,-0.982 5.66,-1.839 1.706,-0.858 3.154,-1.902 4.344,-3.127 1.19,-1.226 2.09,-2.613 2.701,-4.161 0.61,-1.548 0.916,-3.181 0.916,-4.898 0,-1.839 -0.392,-3.579 -1.175,-5.218 -0.782,-1.641 -1.895,-3.104 -3.335,-4.391 -1.471,-1.288 -3.264,-2.339 -5.377,-3.151 -2.113,-0.813 -4.454,-1.326 -7.022,-1.54 6.169,-0.614 10.991,-2.1 14.466,-4.46 4.164,-2.852 6.262,-6.96 6.294,-12.323 0,-1.289 -0.173,-2.637 -0.517,-4.047 -0.345,-1.41 -0.893,-2.775 -1.644,-4.092 -1.754,-3.097 -4.352,-5.534 -7.796,-7.312 -4.039,-2.054 -9.002,-3.081 -14.889,-3.081 -0.689,0 -1.495,0.016 -2.418,0.046 -0.924,0.031 -1.637,0.063 -2.137,0.092 l -1.597,0.093 c -2.568,0.061 -4.462,0.092 -5.683,0.092 h -6.482 c 0.031,1.133 0.11,3.188 0.235,6.161 0.188,4.967 0.282,9.564 0.282,13.795 z" /></g><g
           transform="translate(196.9858,53.8611)"
           id="g36"><path
             id="path38"
             style="fill:#ffffff;fill-opacity:1;fill-rule:nonzero;stroke:none"
             d="m 0,0 c 3.068,-2.913 6.778,-5.12 11.131,-6.621 3.35,-1.166 6.638,-1.747 9.863,-1.747 3.1,0 5.855,0.351 8.267,1.056 2.41,0.706 4.445,1.687 6.105,2.944 1.566,1.164 2.763,2.528 3.593,4.092 0.829,1.563 1.244,3.203 1.244,4.92 0,3.496 -2.019,6.729 -6.058,9.703 -1.597,1.195 -3.39,2.306 -5.377,3.333 -1.99,1.027 -4.643,2.306 -7.961,3.84 -2.976,1.379 -5.536,2.636 -7.679,3.771 -2.146,1.133 -4.032,2.329 -5.66,3.586 -1.942,1.472 -3.429,3.034 -4.462,4.69 -1.033,1.656 -1.55,3.479 -1.55,5.473 0.063,4.689 1.769,8.291 5.119,10.806 3.758,2.788 9.33,4.184 16.721,4.184 3.13,0 6.183,-0.322 9.158,-0.966 3.632,-0.859 7.311,-2.27 11.037,-4.231 l -2.207,-4.69 c -1.722,1.471 -4.588,2.851 -8.596,4.139 -1.721,0.52 -3.444,0.942 -5.166,1.264 -1.722,0.322 -3.193,0.483 -4.415,0.483 -4.039,0 -7.342,-0.706 -9.91,-2.115 -3.068,-1.686 -4.602,-4.323 -4.602,-7.91 0,-1.41 0.516,-2.72 1.551,-3.93 1.033,-1.212 2.519,-2.4 4.46,-3.564 1.848,-1.104 3.915,-2.161 6.201,-3.173 3.036,-1.379 5.635,-2.575 7.796,-3.587 2.16,-1.012 4.257,-2.085 6.293,-3.218 4.979,-2.79 8.485,-5.963 10.521,-9.518 1.096,-1.962 1.644,-4.139 1.644,-6.531 0,-2.85 -0.643,-5.425 -1.926,-7.724 -1.284,-2.299 -3.1,-4.277 -5.448,-5.932 -2.348,-1.656 -5.104,-2.92 -8.266,-3.794 -3.163,-0.874 -6.56,-1.31 -10.192,-1.31 -4.008,0 -7.656,0.49 -10.944,1.471 -4.258,1.226 -8.375,3.295 -12.351,6.207 z" /></g><g
           transform="translate(259.6762,102.8782)"
           id="g40"><path
             id="path42"
             style="fill:#ffffff;fill-opacity:1;fill-rule:nonzero;stroke:none"
             d="m 0,0 c -3.789,-0.092 -8.438,-0.307 -13.949,-0.644 -2.819,-0.184 -4.979,-0.338 -6.482,-0.46 l -8.041,4.691 H 27.616 V -1.104 C 24.704,-0.798 20.54,-0.521 15.123,-0.276 12.617,-0.123 10.004,-0.031 7.28,0 v -40.005 c 0,-4.997 0.077,-9.564 0.235,-13.703 l 0.281,-6.162 h -8.359 c 0.156,3.464 0.312,7.648 0.469,12.554 0.063,3.126 0.094,5.564 0.094,7.311 z" /></g><g
           transform="translate(56.166,122.7454)"
           id="g44"><path
             id="path46"
             style="fill:#ffffff;fill-opacity:1;fill-rule:nonzero;stroke:none"
             d="m 0,0 v -59.965 c 0,-16.077 -3.229,-27.72 -14.905,-34.118 L -15.329,-96.5 C 3.125,-91.412 7.82,-78.495 7.82,-59.147 V 0 Z" /></g><g
           transform="translate(319.2055,84.7566)"
           id="g48"><path
             id="path50"
             style="fill:#ffffff;fill-opacity:1;fill-rule:nonzero;stroke:none"
             d="M 0,0 C 0.152,0.982 0.187,2.071 0.14,3.219 -0.004,6.734 -0.874,5.971 -1.335,3.603 -1.501,2.475 -1.957,1.374 -2.325,0.3 c -1.46,-4.265 -4.949,-8.38 -8.761,-12.77 -8.198,-9.442 -20.679,-19.243 -24.156,-28.55 -0.414,-1.109 -0.742,-2.241 -0.993,-3.374 -1.574,-7.258 2.04,-12.848 2.117,-10.997 0.54,12.941 10.526,21.275 17.389,29.092 C -9.261,-17.788 -1.548,-9.928 0,0" /></g><g
           transform="translate(325.3872,107.6184)"
           id="g52"><path
             id="path54"
             style="fill:#ffffff;fill-opacity:1;fill-rule:nonzero;stroke:none"
             d="M 0,0 C 0.228,0.938 0.349,1.986 0.396,3.095 0.542,6.489 -0.356,5.797 -0.992,3.539 -1.244,2.461 -1.772,1.423 -2.214,0.407 -3.966,-3.628 -7.737,-7.34 -11.685,-11.453 -21.59,-21.774 -31.21,-26.27 -35.972,-36.625 c -0.483,-1.051 -0.896,-2.122 -1.229,-3.201 -2.104,-6.915 0.884,-12.479 1.147,-10.704 1.957,13.181 11.861,19.965 19.102,27.149 C -9.07,-15.559 -2.294,-9.488 0,0" /></g><g
           transform="translate(331.1909,103.7351)"
           id="g56"><path
             id="path58"
             style="fill:#ffffff;fill-opacity:1;fill-rule:nonzero;stroke:none"
             d="M 0,0 H 0.485 C 1.022,0 1.58,0.144 1.58,0.701 1.58,1.237 1.022,1.32 0.464,1.32 H 0 Z m -0.548,-2.341 v 4.135 h 1.285 c 0.759,0 1.423,-0.309 1.423,-1.083 0,-0.536 -0.506,-0.918 -1.054,-1 0.337,-0.072 0.517,-0.248 0.643,-0.526 L 2.465,-2.341 H 1.876 l -0.611,1.32 C 1.064,-0.608 0.917,-0.475 0.38,-0.475 H 0 v -1.866 z m 1.36,-1.042 c 1.685,0 3.034,1.392 3.034,3.043 0,1.639 -1.349,3.021 -3.034,3.021 -1.686,0 -3.034,-1.371 -3.034,-3.021 0,-0.826 0.337,-1.578 0.884,-2.146 0.548,-0.546 1.307,-0.897 2.15,-0.897 m -3.625,3.043 c 0,1.948 1.624,3.537 3.625,3.537 2.001,0 3.624,-1.589 3.624,-3.537 0,-1.96 -1.623,-3.558 -3.624,-3.558 -0.496,0 -0.969,0.092 -1.412,0.278 -1.306,0.547 -2.213,1.805 -2.213,3.28" /></g></g></g></g></svg>