<?xml version="1.0" encoding="utf-8"?>
<!-- Generator: Adobe Illustrator 14.0.0, SVG Export Plug-In . SVG Version: 6.00 Build 43363)  -->
<!DOCTYPE svg PUBLIC "-//W3C//DTD SVG 1.1//EN" "http://www.w3.org/Graphics/SVG/1.1/DTD/svg11.dtd">
<svg version="1.1" id="Ebene_1" xmlns="http://www.w3.org/2000/svg" xmlns:xlink="http://www.w3.org/1999/xlink" x="0px" y="0px"
	 width="602px" height="602px" viewBox="0 0 602 602" enable-background="new 0 0 602 602" xml:space="preserve">
<polyline fill-rule="evenodd" clip-rule="evenodd" fill="#E00973" points="301.256,28.091 601.76,0 601.76,601.004 0.76,601.004 
	0.76,0 301.256,28.091 "/>
<polyline fill-rule="evenodd" clip-rule="evenodd" fill="#E00973" points="301.256,572.909 0.76,601.004 0.76,0 601.76,0 
	601.76,601.004 301.256,572.909 "/>
<polyline fill-rule="evenodd" clip-rule="evenodd" fill="#FFFFFF" points="77.609,350.315 107.283,350.315 107.283,359.329 
	108.879,358.269 109.931,357.207 111.527,356.682 112.588,355.62 114.701,354.56 116.297,353.498 117.358,352.972 117.884,352.972 
	118.945,352.438 121.067,351.376 122.128,351.376 124.242,350.315 125.303,350.315 126.364,349.789 127.425,349.789 
	129.012,349.263 130.073,349.263 131.66,348.729 134.317,348.729 135.378,348.193 144.383,348.193 145.444,348.729 147.031,348.729 
	148.092,349.263 149.153,349.263 150.214,349.789 151.275,349.789 152.336,350.315 152.863,350.315 154.985,351.376 
	155.511,351.902 156.572,352.438 157.633,352.438 158.159,352.972 159.22,353.498 159.755,354.024 160.281,354.56 161.342,355.085 
	161.877,355.62 162.403,356.146 163.464,357.207 163.99,357.733 164.525,358.269 165.051,358.804 165.586,359.855 166.639,360.917 
	168.234,359.855 170.356,358.269 173.531,356.146 174.592,355.62 175.653,355.085 176.714,354.56 177.24,354.024 178.301,353.498 
	179.362,352.972 180.423,352.438 182.545,351.376 183.606,351.376 185.719,350.315 186.78,350.315 188.902,349.263 191.55,349.263 
	192.611,348.729 193.672,348.729 195.26,348.193 205.335,348.193 209.57,349.263 211.692,349.263 213.814,349.789 215.401,350.315 
	217.523,351.376 219.11,351.902 220.698,352.972 222.293,353.498 223.881,354.56 230.238,360.917 230.773,362.513 231.834,363.564 
	232.886,365.152 233.421,366.748 234.482,368.335 235.008,370.457 235.543,372.053 236.069,373.64 236.604,375.762 236.604,377.875 
	237.13,379.471 237.13,381.585 237.656,383.706 237.656,462.678 206.922,462.678 206.922,386.89 206.387,385.828 206.387,383.706 
	205.861,383.181 205.861,382.119 205.335,381.059 205.335,380.523 204.8,379.471 204.274,378.937 203.739,378.401 203.739,377.875 
	203.213,376.814 202.678,376.288 201.625,375.762 200.03,374.166 198.969,374.166 198.442,373.64 197.381,373.105 195.794,373.105 
	194.733,372.579 186.254,372.579 185.193,373.105 184.132,373.105 182.545,373.64 181.484,374.166 180.423,374.166 178.835,374.692 
	172.47,377.875 171.943,378.401 171.943,380.523 172.47,382.119 172.47,384.768 173.004,386.354 173.004,462.678 142.261,462.678 
	142.261,389.538 141.735,388.477 141.735,384.768 141.2,383.706 141.2,383.181 140.674,382.119 140.674,381.059 140.139,380.523 
	139.613,379.471 139.087,378.937 139.087,377.875 138.552,377.35 136.43,375.228 135.378,374.692 134.843,374.166 134.317,374.166 
	133.782,373.64 132.721,373.64 132.195,373.105 131.134,373.105 130.607,372.579 122.128,372.579 121.067,373.105 120.006,373.105 
	117.884,374.166 116.297,374.692 110.992,377.35 109.931,378.401 108.879,378.937 108.344,379.471 108.344,462.678 77.609,462.678 
	77.609,350.315 "/>
<polyline fill-rule="evenodd" clip-rule="evenodd" fill="#FFFFFF" points="300.195,401.191 307.622,393.247 325.633,393.247 
	325.633,390.063 325.106,389.012 325.106,386.354 324.581,385.303 324.581,384.232 324.046,383.181 324.046,382.119 323.52,381.585 
	322.459,379.471 321.924,378.937 321.397,377.875 320.871,377.35 320.337,376.814 319.811,375.762 318.75,374.692 317.688,374.166 
	317.153,373.64 316.102,373.105 315.566,372.579 314.506,372.053 313.979,372.053 312.918,371.518 311.857,370.983 308.674,370.983 
	307.622,370.457 300.195,358.269 307.622,348.193 310.796,348.193 313.979,348.729 317.153,348.729 319.811,349.263 
	322.984,349.789 325.633,350.85 327.755,351.376 330.403,352.438 332.525,353.498 334.647,355.085 336.77,356.146 338.883,357.733 
	345.249,364.1 346.31,366.222 347.896,367.809 350.019,372.053 351.08,374.166 351.605,376.288 352.667,378.401 353.193,381.059 
	353.728,383.181 354.254,385.828 354.789,387.941 354.789,390.599 355.315,393.247 355.315,408.618 354.789,409.68 354.789,411.267 
	307.622,411.267 300.195,401.191 "/>
<polyline fill-rule="evenodd" clip-rule="evenodd" fill="#FFFFFF" points="317.688,402.787 307.622,411.267 285.358,411.267 
	285.358,412.854 285.884,414.441 285.884,417.624 286.419,419.22 286.419,420.807 286.945,422.395 287.48,423.981 287.48,425.051 
	288.006,426.638 289.067,428.76 290.128,430.348 291.189,432.47 292.25,433.521 292.776,434.057 294.898,436.179 295.959,436.705 
	297.021,437.766 298.608,438.301 299.669,438.827 301.256,439.353 302.317,439.888 305.5,440.94 307.087,440.94 309.209,441.475 
	321.924,441.475 324.581,440.94 326.694,440.94 328.816,440.414 331.464,439.888 335.708,438.827 337.295,438.301 339.417,437.766 
	341.539,437.23 343.127,436.705 344.714,436.179 346.31,435.644 347.896,434.583 347.896,458.434 346.31,458.969 344.188,459.495 
	342.601,460.021 340.479,460.556 338.356,461.082 336.234,461.616 334.121,462.143 331.999,462.678 329.877,463.204 327.229,463.73 
	325.106,463.73 322.459,464.265 317.688,464.265 315.04,464.8 312.384,464.8 308.674,464.265 301.256,464.265 298.082,463.73 
	294.898,462.678 291.716,462.143 288.541,461.082 280.588,457.898 278.466,456.847 275.818,455.259 269.46,450.48 261.507,439.888 
	260.446,437.766 259.385,435.117 257.272,429.813 256.211,424.517 255.676,421.868 255.15,418.685 254.624,416.037 254.089,412.854 
	254.089,400.665 254.624,398.017 255.15,394.834 255.676,392.186 256.737,386.89 257.798,383.706 258.333,381.585 259.385,378.937 
	260.446,376.288 262.042,374.166 263.103,372.053 264.69,369.396 267.873,365.152 269.46,363.564 271.048,361.442 279.527,355.085 
	282.175,354.024 284.297,352.972 289.602,350.85 292.25,350.315 295.425,349.263 298.082,348.729 301.256,348.729 304.439,348.193 
	307.622,348.193 317.688,358.804 307.622,370.457 306.561,370.983 303.378,370.983 302.317,371.518 301.256,371.518 
	300.195,372.053 299.669,372.053 298.608,372.579 297.547,373.105 297.021,373.64 295.959,374.166 295.425,374.692 294.373,375.228 
	293.837,375.762 291.716,377.875 291.189,378.937 290.655,379.471 288.006,384.768 288.006,385.828 287.48,386.89 287.48,387.941 
	286.945,389.538 286.945,390.599 286.419,391.651 286.419,393.247 307.622,393.247 317.688,402.787 "/>
<polyline fill-rule="evenodd" clip-rule="evenodd" fill="#FFFFFF" points="415.205,451.55 425.807,440.414 426.868,440.414 
	427.92,439.888 430.042,439.888 430.577,439.353 431.63,439.353 432.69,438.827 433.752,438.301 434.286,438.301 435.348,437.766 
	436.399,437.23 436.935,436.705 437.995,436.179 438.521,435.644 439.057,435.117 440.117,434.057 440.117,374.692 439.583,374.166 
	438.521,374.166 437.995,373.64 436.935,373.64 436.399,373.105 435.348,373.105 434.813,372.579 433.752,372.579 432.69,372.053 
	431.104,372.053 430.042,371.518 425.807,371.518 415.205,358.804 425.807,348.729 428.455,348.729 429.516,349.263 431.63,349.263 
	432.69,349.789 433.752,349.789 434.813,350.315 436.399,350.85 437.461,351.376 439.057,351.902 440.117,351.902 440.117,306.857 
	470.326,306.857 470.326,462.678 440.117,462.678 440.117,454.189 439.583,454.725 438.521,455.259 437.995,455.785 
	437.461,456.847 436.399,457.373 435.873,457.898 434.813,458.434 433.752,458.969 433.226,459.495 432.164,460.021 
	431.104,460.556 430.042,461.082 428.981,461.616 427.92,462.143 426.868,462.143 425.807,462.678 415.205,451.55 "/>
<polyline fill-rule="evenodd" clip-rule="evenodd" fill="#FFFFFF" points="434.813,451.55 425.807,462.678 424.211,463.204 
	422.624,463.73 421.563,463.73 419.976,464.265 416.267,464.265 414.671,464.8 413.084,464.8 410.436,464.265 404.604,464.265 
	401.956,463.73 399.834,462.678 397.186,462.143 395.063,461.616 388.706,458.434 386.584,456.847 384.997,455.259 383.401,454.189 
	381.814,452.603 380.227,450.48 378.631,448.894 377.044,446.771 375.983,444.649 372.809,438.301 371.748,435.644 370.687,433.521 
	370.152,430.874 369.1,425.577 368.564,422.395 368.038,419.746 368.038,417.098 367.504,413.915 367.504,401.727 368.038,398.552 
	368.564,395.896 369.1,392.721 369.626,390.063 370.152,386.89 371.213,384.232 371.748,381.585 372.809,379.471 374.396,376.814 
	375.457,374.166 376.518,372.053 381.288,365.687 388.706,358.269 390.828,356.682 392.941,355.62 395.599,354.024 397.712,352.972 
	403.017,350.85 405.131,350.315 407.787,349.263 410.962,348.729 413.618,348.729 416.267,348.193 425.272,348.193 425.807,348.729 
	434.813,359.329 425.807,371.518 422.624,371.518 421.037,372.053 419.441,372.053 417.854,372.579 416.793,372.579 
	415.205,373.105 414.145,373.64 413.084,374.692 410.962,375.762 407.787,378.937 406.727,379.471 406.191,381.059 405.131,382.119 
	404.604,383.181 404.078,384.768 403.543,385.828 402.482,387.416 401.956,388.477 401.956,390.063 400.895,393.247 
	400.895,395.369 400.369,396.956 400.369,398.552 399.834,400.665 399.834,413.389 400.369,414.976 400.369,416.563 400.895,418.15 
	400.895,419.746 401.421,421.333 401.421,422.395 401.956,423.981 402.482,425.577 403.017,426.638 403.543,428.226 
	404.604,430.348 405.665,431.399 406.191,432.995 407.252,433.521 407.787,434.583 408.848,435.644 409.9,436.179 410.962,437.23 
	412.022,437.766 413.084,438.301 414.671,438.827 415.731,439.353 417.327,439.888 418.38,439.888 419.976,440.414 425.807,440.414 
	434.813,451.55 "/>
<polyline fill-rule="evenodd" clip-rule="evenodd" fill="#FFFFFF" points="524.911,519.911 257.798,519.911 271.583,506.136 
	257.798,492.886 524.911,492.886 524.911,519.911 "/>
<polyline fill-rule="evenodd" clip-rule="evenodd" fill="#FFFFFF" points="257.798,492.886 524.911,492.886 511.661,506.136 
	524.911,519.911 257.798,519.911 257.798,492.886 "/>
<polyline fill-rule="evenodd" clip-rule="evenodd" fill="#FFFFFF" points="237.656,519.911 77.609,519.911 91.911,506.136 
	77.609,492.886 237.656,492.886 237.656,519.911 "/>
<polyline fill-rule="evenodd" clip-rule="evenodd" fill="#FFFFFF" points="77.609,492.886 237.656,492.886 222.82,506.136 
	237.656,519.911 77.609,519.911 77.609,492.886 "/>
<polyline fill-rule="evenodd" clip-rule="evenodd" fill="#FFFFFF" points="490.994,316.933 490.994,315.872 491.52,315.337 
	491.52,312.688 492.055,311.628 492.055,311.102 492.581,310.04 493.115,309.515 493.115,308.449 494.168,307.388 494.703,306.331 
	495.229,305.801 495.764,305.271 496.29,304.739 496.825,304.209 497.877,303.679 498.412,303.148 498.938,302.622 499.999,302.087 
	500.534,301.561 501.595,301.03 502.121,300.5 503.183,300.5 504.243,299.97 504.77,299.97 505.83,299.439 513.783,299.439 
	514.31,299.97 515.371,299.97 516.432,300.5 516.958,300.5 518.019,301.03 518.554,301.561 519.615,302.087 520.141,302.622 
	520.667,303.148 521.729,303.679 522.263,304.209 522.789,304.739 523.324,305.271 523.851,305.801 524.376,306.331 
	524.911,307.388 525.973,308.449 526.498,309.515 526.498,310.04 527.033,311.102 527.56,311.628 527.56,313.224 528.094,314.275 
	528.094,319.581 527.56,320.642 527.56,322.229 527.033,323.29 526.498,323.816 526.498,324.877 525.438,325.938 524.911,326.999 
	524.376,327.525 523.851,328.061 523.324,329.121 522.789,329.647 522.263,330.183 521.729,330.708 520.667,331.234 520.141,331.77 
	519.615,332.304 518.554,332.83 518.019,333.356 516.958,333.356 516.432,333.892 515.371,333.892 514.31,334.418 513.783,334.418 
	512.723,334.943 506.892,334.943 505.83,334.418 504.77,334.418 504.243,333.892 503.183,333.892 502.121,333.356 501.595,333.356 
	500.534,332.83 499.999,332.304 498.938,331.77 498.412,331.234 497.877,330.708 496.825,330.183 496.29,329.647 495.764,329.121 
	495.229,328.061 494.703,327.525 494.168,326.999 493.642,325.938 493.115,325.403 493.115,324.877 492.581,323.816 492.055,323.29 
	492.055,322.229 491.52,321.168 491.52,319.055 490.994,317.985 490.994,316.933 "/>
<polyline fill-rule="evenodd" clip-rule="evenodd" fill="#FFFFFF" points="494.168,350.315 509.54,368.87 524.911,350.315 
	524.911,462.678 494.168,462.678 494.168,350.315 "/>
<polyline fill-rule="evenodd" clip-rule="evenodd" fill="#FFFFFF" points="524.911,462.678 509.54,444.123 494.168,462.678 
	494.168,350.315 524.911,350.315 524.911,462.678 "/>
</svg>
